<?xml version="1.0" standalone="no"?>
<!DOCTYPE svg PUBLIC "-//W3C//DTD SVG 20010904//EN"
 "http://www.w3.org/TR/2001/REC-SVG-20010904/DTD/svg10.dtd">
<svg version="1.0" xmlns="http://www.w3.org/2000/svg"
 width="500.000000pt" height="500.000000pt" viewBox="0 0 500.000000 500.000000"
 preserveAspectRatio="xMidYMid meet">

<g transform="translate(0.000000,500.000000) scale(0.100000,-0.100000)"
fill="#000000" stroke="none">
<path d="M3613 3560 c-71 -23 -116 -60 -144 -117 l-24 -48 -3 -589 c-2 -324 1
-593 5 -597 4 -4 33 1 63 11 67 23 131 88 149 152 8 31 11 200 9 624 l-3 581
-52 -17z"/>
<path d="M2683 3553 c-51 -18 -118 -90 -133 -142 -6 -22 -10 -260 -10 -623 l0
-587 45 13 c67 21 106 47 140 95 l30 43 5 211 5 212 230 5 c189 4 235 8 260
22 58 32 105 97 120 165 l7 33 -309 2 -308 3 -3 283 c-3 317 4 295 -79 265z"/>
<path d="M1445 3538 c-115 -22 -248 -113 -313 -216 -94 -147 -99 -354 -12
-507 63 -110 184 -200 311 -230 93 -21 465 -21 538 1 94 28 174 123 194 232
l7 32 -338 0 c-304 0 -341 2 -377 19 -153 69 -166 274 -23 368 l42 28 363 3
363 3 0 -561 0 -560 -340 0 c-285 0 -347 3 -378 16 -87 36 -152 136 -152 235
0 153 -98 272 -241 295 l-42 7 6 -204 c6 -233 19 -292 86 -395 67 -102 142
-161 261 -205 l65 -24 970 0 970 0 46 23 c71 35 119 91 145 169 12 37 20 71
18 75 -3 4 -259 8 -570 8 l-564 0 0 700 0 700 -492 -1 c-271 -1 -515 -6 -543
-11z"/>
</g>
</svg>
