<svg version="1.1" id="Layer_1" xmlns="http://www.w3.org/2000/svg" xmlns:xlink="http://www.w3.org/1999/xlink" x="0px" y="0px"
	 width="100%" viewBox="0 0 500 500" enable-background="new 0 0 500 500" xml:space="preserve">
<path fill="#000000" opacity="1.000000" stroke="none" 
	d="
M237.000000,501.000000 
	C158.000015,501.000000 79.500038,501.000000 1.000042,501.000000 
	C1.000028,334.333405 1.000028,167.666779 1.000014,1.000132 
	C167.666565,1.000088 334.333130,1.000088 500.999756,1.000044 
	C500.999847,167.666519 500.999847,334.333038 500.999939,500.999786 
	C413.166656,501.000000 325.333344,501.000000 237.000000,501.000000 
M189.756104,244.638214 
	C194.604431,243.191925 199.718460,242.308716 204.241989,240.174118 
	C212.026001,236.500900 219.425430,224.792984 217.308029,216.000519 
	C201.392624,216.000519 185.406677,216.098068 169.422943,215.951889 
	C163.139755,215.894424 156.789871,215.765793 150.597549,214.828888 
	C140.824539,213.350235 134.165985,203.417313 135.019562,192.577911 
	C135.730453,183.550354 143.996872,175.166061 153.060394,175.076248 
	C174.387085,174.864914 195.717422,175.045334 217.045731,174.948166 
	C220.140869,174.934082 221.038681,176.116653 221.032852,179.068146 
	C220.965225,213.393982 220.960373,247.720047 221.037521,282.045837 
	C221.044479,285.141571 219.879059,286.048431 216.925766,286.035522 
	C197.430328,285.950409 177.930359,286.225952 158.440186,285.894531 
	C148.610565,285.727386 137.218353,277.844971 135.775482,267.652252 
	C134.923264,261.631927 134.408844,255.509628 132.908997,249.646393 
	C129.748291,237.290604 115.256218,229.409912 106.000999,230.856308 
	C106.000999,242.413361 105.634476,254.065094 106.084282,265.685211 
	C106.814949,284.560883 116.103966,298.459198 132.160446,308.051819 
	C141.125488,313.407806 150.996948,315.036896 161.229538,314.983093 
	C219.172623,314.678467 277.115234,314.239319 335.058655,314.091949 
	C344.600250,314.067688 351.647766,309.979034 357.321320,302.994568 
	C361.124695,298.312347 362.947784,292.759888 362.769745,286.001617 
	C360.210419,286.001617 358.082397,286.001648 355.954376,286.001617 
	C322.128265,286.000885 288.302185,285.997437 254.476074,286.004456 
	C251.625061,286.005066 248.922180,286.525604 248.934540,281.949005 
	C249.057220,236.524948 249.008850,191.100403 249.008850,145.414215 
	C248.864136,145.377823 248.232025,145.075699 247.602600,145.081161 
	C215.656189,145.358505 183.710205,145.685333 151.763718,145.952774 
	C136.407043,146.081345 124.421799,153.463043 115.782761,165.133179 
	C103.686630,181.473389 101.985474,200.018234 111.374985,218.082504 
	C120.037926,234.748962 134.316345,244.194748 154.481888,244.640228 
	C165.984116,244.707855 177.486359,244.775497 189.756104,244.638214 
M254.000793,197.500000 
	C254.000793,225.117218 254.000793,252.734451 254.000793,280.246094 
	C265.244446,282.176514 277.758728,271.045685 277.958588,259.338898 
	C278.129181,249.345917 278.166046,239.343643 277.919067,229.353989 
	C277.819183,225.314789 278.899384,223.796295 283.175812,223.910477 
	C293.663940,224.190521 304.164642,224.007584 314.660278,223.997253 
	C329.273834,223.982880 338.212463,215.604401 339.596222,200.002182 
	C337.599731,200.002182 335.658722,200.002289 333.717743,200.002167 
	C316.891418,200.001144 300.063477,199.874939 283.239868,200.087433 
	C279.058411,200.140244 277.856506,198.832993 277.915161,194.712845 
	C278.130951,179.555557 277.999084,164.393341 277.998077,149.232971 
	C277.997955,147.297287 277.998077,145.361603 277.998077,143.437668 
	C264.440155,143.346207 254.228851,154.070190 254.031006,168.012207 
	C253.896286,177.506363 254.002380,187.003952 254.000793,197.500000 
M345.001556,274.331909 
	C345.001556,276.422638 345.001556,278.513397 345.001556,281.125458 
	C347.319092,280.796844 348.786346,280.731201 350.176514,280.369385 
	C362.081818,277.270691 368.953522,268.151306 368.977478,254.026215 
	C369.037079,218.891693 369.001495,183.757019 368.984375,148.622406 
	C368.983521,146.865509 368.796204,145.108719 368.697693,143.386154 
	C354.832062,143.482086 345.064697,153.209625 345.034363,165.468170 
	C344.945404,201.435150 345.001831,237.402466 345.001556,274.331909 
z"/>
<path fill="#205375" opacity="1.000000" stroke="none" 
	d="
M153.857895,244.038559 
	C134.316345,244.194748 120.037926,234.748962 111.374985,218.082504 
	C101.985474,200.018234 103.686630,181.473389 115.782761,165.133179 
	C124.421799,153.463043 136.407043,146.081345 151.763718,145.952774 
	C183.710205,145.685333 215.656189,145.358505 247.602600,145.081161 
	C248.232025,145.075699 248.864136,145.377823 249.008850,145.414215 
	C249.008850,191.100403 249.057220,236.524948 248.934540,281.949005 
	C248.922180,286.525604 251.625061,286.005066 254.476074,286.004456 
	C288.302185,285.997437 322.128265,286.000885 355.954376,286.001617 
	C358.082397,286.001648 360.210419,286.001617 362.769745,286.001617 
	C362.947784,292.759888 361.124695,298.312347 357.321320,302.994568 
	C351.647766,309.979034 344.600250,314.067688 335.058655,314.091949 
	C277.115234,314.239319 219.172623,314.678467 161.229538,314.983093 
	C150.996948,315.036896 141.125488,313.407806 132.160446,308.051819 
	C116.103966,298.459198 106.814949,284.560883 106.084282,265.685211 
	C105.634476,254.065094 106.000999,242.413361 106.000999,230.856308 
	C115.256218,229.409912 129.748291,237.290604 132.908997,249.646393 
	C134.408844,255.509628 134.923264,261.631927 135.775482,267.652252 
	C137.218353,277.844971 148.610565,285.727386 158.440186,285.894531 
	C177.930359,286.225952 197.430328,285.950409 216.925766,286.035522 
	C219.879059,286.048431 221.044479,285.141571 221.037521,282.045837 
	C220.960373,247.720047 220.965225,213.393982 221.032852,179.068146 
	C221.038681,176.116653 220.140869,174.934082 217.045731,174.948166 
	C195.717422,175.045334 174.387085,174.864914 153.060394,175.076248 
	C143.996872,175.166061 135.730453,183.550354 135.019562,192.577911 
	C134.165985,203.417313 140.824539,213.350235 150.597549,214.828888 
	C156.789871,215.765793 163.139755,215.894424 169.422943,215.951889 
	C185.406677,216.098068 201.392624,216.000519 217.308029,216.000519 
	C219.425430,224.792984 212.026001,236.500900 204.241989,240.174118 
	C199.718460,242.308716 194.604431,243.191925 188.978516,244.622681 
	C176.753235,244.417618 165.305573,244.228088 153.857895,244.038559 
z"/>
<path fill="#205375" opacity="1.000000" stroke="none" 
	d="
M254.000793,197.000000 
	C254.002380,187.003952 253.896286,177.506363 254.031006,168.012207 
	C254.228851,154.070190 264.440155,143.346207 277.998077,143.437668 
	C277.998077,145.361603 277.997955,147.297287 277.998077,149.232971 
	C277.999084,164.393341 278.130951,179.555557 277.915161,194.712845 
	C277.856506,198.832993 279.058411,200.140244 283.239868,200.087433 
	C300.063477,199.874939 316.891418,200.001144 333.717743,200.002167 
	C335.658722,200.002289 337.599731,200.002182 339.596222,200.002182 
	C338.212463,215.604401 329.273834,223.982880 314.660278,223.997253 
	C304.164642,224.007584 293.663940,224.190521 283.175812,223.910477 
	C278.899384,223.796295 277.819183,225.314789 277.919067,229.353989 
	C278.166046,239.343643 278.129181,249.345917 277.958588,259.338898 
	C277.758728,271.045685 265.244446,282.176514 254.000793,280.246094 
	C254.000793,252.734451 254.000793,225.117218 254.000793,197.000000 
z"/>
<path fill="#205375" opacity="1.000000" stroke="none" 
	d="
M345.001434,273.850769 
	C345.001831,237.402466 344.945404,201.435150 345.034363,165.468170 
	C345.064697,153.209625 354.832062,143.482086 368.697693,143.386154 
	C368.796204,145.108719 368.983521,146.865509 368.984375,148.622406 
	C369.001495,183.757019 369.037079,218.891693 368.977478,254.026215 
	C368.953522,268.151306 362.081818,277.270691 350.176514,280.369385 
	C348.786346,280.731201 347.319092,280.796844 345.001556,281.125458 
	C345.001556,278.513397 345.001556,276.422638 345.001434,273.850769 
z"/>
<path fill="#164674" opacity="1.000000" stroke="none" 
	d="
M154.169891,244.339386 
	C165.305573,244.228088 176.753235,244.417618 188.594757,244.725159 
	C177.486359,244.775497 165.984116,244.707855 154.169891,244.339386 
z"/>
</svg>