<svg xmlns="http://www.w3.org/2000/svg" xmlns:xlink="http://www.w3.org/1999/xlink" width="500" zoomAndPan="magnify" viewBox="0 0 375 374.999991" height="500" preserveAspectRatio="xMidYMid meet" version="1.0"><defs><g/></defs><rect x="-37.5" width="450" fill="#ffffff" y="-37.499999" height="449.999989" fill-opacity="1"/><rect x="-37.5" width="450" fill="#000000" y="-37.499999" height="449.999989" fill-opacity="1"/><rect x="-37.5" width="450" fill="#ffffff" y="-37.499999" height="449.999989" fill-opacity="1"/><rect x="-37.5" width="450" fill="#000000" y="-37.499999" height="449.999989" fill-opacity="1"/><g fill="#205375" fill-opacity="1"><g transform="translate(78.921971, 234.923855)"><g><path d="M 107.457031 0.15625 L 106.195312 -4.726562 C 104.148438 -14.179688 95.640625 -20.796875 85.871094 -20.796875 L 39.390625 -20.796875 C 29.148438 -20.796875 20.957031 -29.148438 20.957031 -39.234375 L 20.957031 -41.4375 C 20.957031 -51.207031 14.179688 -59.558594 4.726562 -61.761719 L 0 -62.867188 L 0 -38.285156 C 0 -17.015625 17.175781 0.15625 38.445312 0.15625 Z M 107.457031 -126.046875 L 36.710938 -126.046875 C 16.386719 -126.046875 0 -109.503906 0 -89.179688 C 0 -68.855469 16.386719 -52.308594 36.710938 -52.46875 L 62.550781 -52.46875 C 72.320312 -52.46875 80.671875 -59.085938 82.875 -68.539062 L 83.980469 -73.421875 L 36.710938 -73.421875 C 28.046875 -73.421875 20.957031 -80.511719 20.957031 -89.179688 C 20.957031 -97.84375 28.046875 -104.933594 36.710938 -104.933594 L 85.871094 -104.933594 C 95.640625 -104.933594 104.148438 -111.710938 106.351562 -121.164062 Z M 107.457031 -126.046875 "/></g></g></g><g fill="#205375" fill-opacity="1"><g transform="translate(190.349127, 209.994164)"><g><path d="M 63.601562 -60.238281 L 17.191406 -60.238281 L 17.191406 -103.414062 L 13.183594 -102.382812 C 5.429688 -100.703125 0 -93.722656 0 -85.707031 L 0 0 L 3.878906 -0.90625 C 11.632812 -2.714844 17.191406 -9.566406 17.191406 -17.582031 L 17.191406 -43.046875 L 46.019531 -43.046875 C 54.035156 -43.046875 60.886719 -48.605469 62.695312 -56.363281 Z M 85.058594 -103.414062 L 81.050781 -102.382812 C 73.296875 -100.703125 67.867188 -93.722656 67.867188 -85.707031 L 67.867188 0 L 71.746094 -0.90625 C 79.5 -2.714844 85.058594 -9.566406 85.058594 -17.582031 Z M 85.058594 -103.414062 "/></g></g></g><g fill="#205375" fill-opacity="1"><g transform="translate(164.958129, 234.406677)"><g><path d="M 106.527344 -20.804688 L 20.804688 -20.804688 L 20.804688 -125.140625 L 15.957031 -123.890625 C 6.570312 -121.855469 0 -113.410156 0 -103.710938 L 0 0 L 85.253906 0 C 94.796875 0 103.242188 -6.570312 105.433594 -15.957031 Z M 106.527344 -20.804688 "/></g></g></g></svg>