<?xml version="1.0" encoding="UTF-8"?>
<svg xmlns="http://www.w3.org/2000/svg" xmlns:xlink="http://www.w3.org/1999/xlink" width="300px" height="300px" viewBox="0 0 300 300" version="1.1">
<g id="surface1">
<path style=" stroke:none;fill-rule:nonzero;fill:rgb(12.54902%,32.54902%,45.882353%);fill-opacity:1;" d="M 149.101562 188.0625 L 148.09375 184.15625 C 146.457031 176.59375 139.648438 171.300781 131.835938 171.300781 L 94.648438 171.300781 C 86.457031 171.300781 79.902344 164.621094 79.902344 156.550781 L 79.902344 154.789062 C 79.902344 146.972656 74.480469 140.292969 66.917969 138.53125 L 63.136719 137.644531 L 63.136719 157.3125 C 63.136719 174.328125 76.878906 188.0625 93.894531 188.0625 Z M 149.101562 87.101562 L 92.507812 87.101562 C 76.246094 87.101562 63.136719 100.335938 63.136719 116.59375 C 63.136719 132.855469 76.246094 146.09375 92.507812 145.964844 L 113.179688 145.964844 C 120.992188 145.964844 127.675781 140.671875 129.4375 133.109375 L 130.320312 129.203125 L 92.507812 129.203125 C 85.574219 129.203125 79.902344 123.53125 79.902344 116.59375 C 79.902344 109.664062 85.574219 103.992188 92.507812 103.992188 L 131.835938 103.992188 C 139.648438 103.992188 146.457031 98.570312 148.21875 91.007812 Z M 149.101562 87.101562 "/>
<path style=" stroke:none;fill-rule:nonzero;fill:rgb(12.54902%,32.54902%,45.882353%);fill-opacity:1;" d="M 203.160156 119.804688 L 166.03125 119.804688 L 166.03125 85.265625 L 162.828125 86.089844 C 156.625 87.433594 152.28125 93.015625 152.28125 99.429688 L 152.28125 167.996094 L 155.382812 167.269531 C 161.585938 165.824219 166.03125 160.34375 166.03125 153.929688 L 166.03125 133.558594 L 189.09375 133.558594 C 195.507812 133.558594 200.988281 129.109375 202.4375 122.90625 Z M 220.328125 85.265625 L 217.121094 86.089844 C 210.917969 87.433594 206.574219 93.015625 206.574219 99.429688 L 206.574219 167.996094 L 209.675781 167.269531 C 215.878906 165.824219 220.328125 160.34375 220.328125 153.929688 Z M 220.328125 85.265625 "/>
<path style=" stroke:none;fill-rule:nonzero;fill:rgb(12.54902%,32.54902%,45.882353%);fill-opacity:1;" d="M 217.1875 170.882812 L 148.609375 170.882812 L 148.609375 87.414062 L 144.730469 88.414062 C 137.222656 90.039062 131.964844 96.796875 131.964844 104.554688 L 131.964844 187.523438 L 200.167969 187.523438 C 207.804688 187.523438 214.558594 182.269531 216.3125 174.757812 Z M 217.1875 170.882812 "/>
</g>
</svg>
