<svg xmlns="http://www.w3.org/2000/svg"  viewBox="0 0 48 48" width="60px" height="60px"><circle cx="24" cy="24" r="20" fill="#2100c4"/><path fill="#ddbaff" d="M24,7.009C14.627,7.009,7,14.636,7,24s7.627,16.991,17,16.991S41,33.364,41,24S33.373,7.009,24,7.009	z M8.897,24c0-2.19,0.472-4.267,1.312-6.145l7.202,19.737C12.371,35.148,8.897,29.984,8.897,24z M24,39.103	c-1.482,0-2.907-0.217-4.267-0.614l4.531-13.168l4.644,12.715c0.028,0.076,0.076,0.142,0.113,0.208	C27.445,38.801,25.756,39.103,24,39.103z M25.973,16.534c0.916-0.047,1.737-0.151,1.737-0.151c0.812-0.094,0.708-1.293-0.104-1.237	c0,0-2.445,0.189-4.021,0.189c-1.482,0-3.983-0.189-3.983-0.189c-0.812-0.057-0.906,1.189-0.094,1.237c0,0,0.774,0.104,1.586,0.151	l2.464,6.834l-3.304,9.911l-5.607-16.773c0.916-0.047,1.727-0.151,1.727-0.151c0.821-0.094,0.717-1.293-0.094-1.237	c0,0-2.445,0.189-4.021,0.189c-0.283,0-0.359,0.028-0.576-0.038c2.737-3.851,7.23-6.371,12.318-6.371	c3.936,0,7.514,1.491,10.194,3.964c-0.066,0-0.123-0.009-0.189-0.009c-1.482,0-2.869,1.303-2.869,2.681	c0,1.237,0.717,2.284,1.482,3.54c0.576,1.001,1.576,2.303,1.576,4.163c0,1.303-0.378,2.926-1.142,4.889l-1.51,5.031L25.973,16.534z M31.599,37.064l4.606-13.347c0.868-2.162,1.152-3.879,1.152-5.418c0-0.547-0.038-1.067-0.104-1.548	c1.18,2.152,1.85,4.625,1.85,7.249C39.103,29.569,36.082,34.44,31.599,37.064z"/></svg>